<?xml version="1.0" encoding="iso-8859-1"?>
<!-- Generator: Adobe Illustrator 24.0.2, SVG Export Plug-In . SVG Version: 6.00 Build 0)  -->
<svg version="1.1" id="katman_1" xmlns="http://www.w3.org/2000/svg" xmlns:xlink="http://www.w3.org/1999/xlink" x="0px" y="0px"
	 viewBox="0 0 4890.126 573.425" style="enable-background:new 0 0 4890.126 573.425;" xml:space="preserve">
<g id="GOLGESIZ">
	<g>
		<path style="fill:#2D5EA7;" d="M2656.548,352.301c0-12.217,0-24.434,0-36.65c0.451,0.047,0.624-0.239,0.747-0.605
			c0.742-2.215,1.509-4.423,2.222-6.648c0.216-0.673,0.314-1.388,0.418-2.091c0.223-1.508,0.417-3.02,0.617-4.531
			c0.712-5.395,1.711-10.74,2.873-16.051c3.38-15.443,8.292-30.385,14.791-44.801c8.724-19.35,19.816-37.245,33.115-53.771
			c13.296-16.521,28.659-30.831,46.144-42.848c13.082-8.991,26.991-16.451,41.646-22.535c12.504-5.191,25.337-9.372,38.497-12.553
			c9.479-2.291,19.061-4.09,28.607-6.059c1.89-0.39,3.776-0.795,5.658-1.218c0.217-0.049,0.398-0.255,0.596-0.388
			c10.588,0,21.176,0,31.764,0c0.256,0.156,0.496,0.349,0.769,0.461c1.176,0.481,2.354,0.958,3.545,1.4
			c1.383,0.513,2.783,0.966,4.274,1.067c0.963,0.065,1.927,0.143,2.884,0.27c2.668,0.356,5.333,0.733,7.998,1.117
			c4.832,0.696,9.593,1.741,14.318,2.956c11.267,2.9,22.066,7.047,32.477,12.225c11.789,5.863,22.844,12.909,33.406,20.744
			c11.172,8.288,21.751,17.286,31.903,26.788c6.026,5.641,11.661,11.654,16.895,18.042c3.164,3.861,6.05,7.927,8.958,11.978
			c4.866,6.779,9.685,13.589,14.217,20.601c7.598,11.755,13.27,24.351,16.927,37.866c2.258,8.346,4.099,16.785,5.9,25.237
			c1.271,5.964,2.53,11.933,3.91,17.872c1.473,6.337,3.09,12.64,3.863,19.117c0.355,2.979,0.774,5.951,0.769,8.96
			c-0.001,0.865,0.017,1.73,0.043,2.595c0.014,0.455,0.016,0.923,0.354,1.294c0,3.156,0,6.312,0,9.468
			c-0.407,0.641-0.354,1.367-0.37,2.075c-0.038,1.679,0.021,3.365-0.108,5.036c-0.196,2.533-0.464,5.065-0.802,7.583
			c-0.501,3.727-1.006,7.457-1.661,11.158c-1.187,6.708-2.722,13.344-4.486,19.925c-2.502,9.334-5.281,18.578-8.804,27.587
			c-6.257,16.003-14.381,30.983-24.488,44.883c-10.445,14.366-22.62,27.096-36.34,38.355
			c-16.329,13.401-34.157,24.418-53.286,33.349c-11.864,5.539-24.121,10.004-36.792,13.303c-7.277,1.894-14.635,3.419-22.099,4.385
			c-3.073,0.398-6.143,0.837-9.226,1.128c-3.34,0.316-6.695,0.47-10.041,0.722c-0.547,0.041-1.083,0.219-1.624,0.333
			c-4.174,0-8.348,0-12.522,0c-0.543-0.112-1.082-0.285-1.631-0.324c-2.181-0.156-4.365-0.27-6.547-0.402
			c-0.254-0.015-0.507-0.044-0.76-0.069c-1.719-0.167-3.439-0.336-5.158-0.502c-1.365-0.132-2.735-0.232-4.096-0.395
			c-2.067-0.248-4.13-0.534-6.193-0.815c-2.415-0.329-4.837-0.615-7.239-1.02c-4.705-0.792-9.401-1.631-14.068-2.633
			c-8.896-1.911-17.671-4.253-26.265-7.24c-18.318-6.366-35.717-14.669-52.18-24.922c-14.436-8.991-27.75-19.415-39.876-31.347
			c-14.077-13.851-26.11-29.306-36.22-46.259c-1.154-1.936-2.592-3.498-4.452-4.717c-0.808-0.53-1.607-1.074-2.404-1.621
			c-0.377-0.259-0.735-0.547-1.112-0.805c-0.475-0.325-0.643-0.761-0.538-1.319c0.047-0.25,0.094-0.502,0.113-0.754
			c0.222-2.849,0.256-5.667-0.563-8.468c-2.623-8.974-5.158-17.974-7.756-26.955c-3.277-11.325-6.738-22.596-9.758-33.994
			c-0.325-1.228-0.692-2.444-1.007-3.675C2657.18,352.759,2656.939,352.482,2656.548,352.301z M2690.819,318.468
			c0.087,4.058,0.123,6.959,0.22,9.858c0.06,1.779,0.176,3.558,0.335,5.331c0.232,2.582,0.485,5.164,0.803,7.738
			c0.405,3.279,0.812,6.56,1.344,9.819c0.95,5.821,2.17,11.589,3.571,17.319c3.017,12.342,7.254,24.243,12.747,35.701
			c6.987,14.574,15.739,28.014,25.908,40.552c8.722,10.753,18.45,20.493,29.296,29.108c16.04,12.74,33.773,22.427,53.021,29.377
			c9.43,3.405,19.063,6.097,28.87,8.157c3.527,0.741,7.086,1.334,10.639,1.945c2.452,0.422,4.915,0.791,7.381,1.123
			c2.014,0.271,4.038,0.477,6.062,0.666c1.721,0.161,3.446,0.275,5.172,0.377c3.198,0.189,6.397,0.439,9.598,0.507
			c4.018,0.085,8.04,0.133,12.056-0.199c2.432-0.201,4.882-0.202,7.31-0.435c3.084-0.296,6.155-0.729,9.229-1.114
			c4.693-0.586,9.328-1.505,13.927-2.584c15.552-3.648,30.228-9.506,44.042-17.537c9.045-5.259,17.496-11.351,25.528-18.038
			c13.496-11.235,25.333-23.996,35.302-38.466c13.64-19.799,22.905-41.52,28.448-64.871c1.292-5.443,2.368-10.929,3.246-16.452
			c0.495-3.112,0.909-6.238,1.288-9.367c0.293-2.422,0.511-4.855,0.699-7.288c0.295-3.803,0.658-7.607,0.778-11.417
			c0.272-8.652,0.149-17.297-0.765-25.92c-0.349-3.288-0.743-6.565-1.229-9.835c-0.936-6.293-2.254-12.504-3.898-18.648
			c-4.899-18.296-12.672-35.294-23.221-51.007c-13.878-20.673-31.018-38.202-51.296-52.637
			c-14.067-10.013-29.327-17.671-45.844-22.781c-6.999-2.166-14.118-3.821-21.344-4.996c-3.609-0.587-7.238-1.045-10.888-1.351
			c-3.143-0.263-6.281-0.559-9.437-0.585c-0.458-0.004-0.916-0.03-1.372-0.063c-2.949-0.215-5.9-0.18-8.851-0.053
			c-3.252,0.14-6.504,0.287-9.755,0.454c-2.031,0.104-4.064,0.208-6.089,0.39c-2.53,0.228-5.055,0.52-7.578,0.813
			c-2.725,0.317-5.456,0.601-8.166,1.02c-4.818,0.745-9.615,1.606-14.386,2.626c-11.002,2.352-21.732,5.592-32.239,9.605
			c-13.687,5.227-26.315,12.331-37.992,21.163c-6.99,5.287-13.684,10.928-20.054,16.938c-6.886,6.496-13.686,13.085-20.478,19.68
			c-4.347,4.221-8.509,8.623-12.382,13.289c-4.861,5.856-9.125,12.102-12.45,18.967c-5.092,10.513-9.114,21.418-11.989,32.741
			c-1.817,7.154-3.127,14.406-3.975,21.735c-0.338,2.928-0.549,5.874-0.719,8.818
			C2691.032,312.301,2690.924,315.964,2690.819,318.468z M2981.663,509.706c0.699-0.29,0.988-0.791,1.339-1.213
			c1.628-1.955,3.235-3.927,4.856-5.887c2.206-2.667,4.482-5.27,6.957-7.697c1.141-1.119,2.41-2.037,3.876-2.661
			c1.261-0.537,2.556-0.997,3.818-1.532c2.104-0.893,4.205-1.796,6.286-2.739c1.304-0.591,2.461-1.429,3.529-2.383
			c1.221-1.091,2.304-2.312,3.175-3.693c1.057-1.676,2.077-3.379,3.034-5.114c1.401-2.541,2.86-5.048,4.54-7.413
			c2.15-3.027,4.303-6.055,6.57-8.994c4.849-6.287,10.079-12.262,15.22-18.308c0.917-1.078,2.008-2.02,3.083-2.95
			c1.037-0.898,2.154-1.703,3.241-2.542c1.087-0.839,2.188-1.66,3.265-2.513c0.219-0.173,0.356-0.45,0.593-0.759
			c-0.629-0.614-1.18-1.207-1.791-1.732c-0.537-0.461-1.109-0.902-1.722-1.253c-1.585-0.906-2.968-0.754-4.344,0.464
			c-0.492,0.435-0.936,0.936-1.345,1.452c-0.506,0.636-0.961,1.313-1.424,1.982c-5.674,8.204-11.583,16.231-17.911,23.947
			c-5.786,7.056-11.997,13.699-18.849,19.738c-10.703,9.432-22.46,17.322-35.061,23.971c-3.191,1.684-6.451,3.237-9.677,4.855
			c-0.487,0.244-1.073,0.357-1.331,0.906c0.01,0.13-0.006,0.241,0.03,0.331c1.275,3.211,2.553,6.421,3.842,9.626
			c0.065,0.161,0.239,0.277,0.419,0.477c0.312-0.31,0.58-0.535,0.797-0.8c0.677-0.826,1.336-1.668,2.001-2.504
			c3.103-3.902,6.204-7.807,9.314-11.704c0.232-0.29,0.389-0.718,0.911-0.701c0.119,1.357,0.257,2.667,0.343,3.98
			c0.108,1.654-0.165,1.408,1.393,2.639C2980.956,509.231,2981.297,509.449,2981.663,509.706z M2673.315,272.73
			c0.39-0.047,0.601-0.035,0.785-0.099c1.58-0.557,3.168-1.095,4.726-1.707c0.941-0.37,1.882-0.785,2.74-1.315
			c2.339-1.444,2.982-3.288,2.405-6.017c-0.146-0.69-0.39-1.372-0.685-2.015c-0.335-0.73-0.273-1.384,0.179-2.002
			c0.599-0.82,1.198-1.645,1.859-2.414c2.617-3.049,5.254-6.08,7.891-9.111c7.411-8.518,14.832-17.027,22.235-25.552
			c1.333-1.535,2.607-3.123,3.893-4.699c0.169-0.207,0.492-0.406,0.272-0.766c-0.052-0.017-0.111-0.059-0.141-0.044
			c-0.269,0.133-0.55,0.25-0.796,0.418c-6.381,4.363-12.733,8.765-18.808,13.553c-5.682,4.478-11.065,9.279-15.912,14.665
			c-1.787,1.986-3.204,4.195-4.307,6.62c-0.97,2.132-1.752,4.333-2.414,6.577c-1.293,4.384-2.567,8.773-3.843,13.162
			C2673.341,272.164,2673.352,272.365,2673.315,272.73z M2709.222,199.698c0.975-0.233,1.466-0.604,1.983-0.911
			c5.026-2.988,10.045-5.988,15.075-8.97c6.689-3.967,13.33-8.017,20.414-11.276c2.451-1.128,4.719-2.59,6.904-4.183
			c6.826-4.979,13.275-10.435,19.867-15.71c0.222-0.178,0.366-0.452,0.557-0.694c-0.431-0.707-0.85-1.326-1.539-1.777
			c-0.331,0.179-0.653,0.321-0.943,0.514c-3.513,2.339-7.045,4.649-10.523,7.039c-4.317,2.966-8.539,6.071-12.99,8.839
			c-4.11,2.556-8.344,4.886-12.948,6.423c-6.044,2.018-11.292,5.295-15.91,9.643c-3.34,3.145-6.336,6.606-9.34,10.061
			C2709.645,198.907,2709.532,199.18,2709.222,199.698z M2854.09,130.027c0.561-0.232,0.978-0.379,1.374-0.572
			c11.827-5.764,23.651-11.531,35.475-17.301c0.364-0.178,0.727-0.364,1.066-0.583c0.098-0.063,0.111-0.258,0.192-0.465
			c-0.515-0.145-0.985-0.328-1.472-0.406c-3.691-0.595-7.392-0.617-11.072,0.033c-3.622,0.64-7.066,1.841-10.318,3.573
			c-6.164,3.281-11.03,7.925-14.593,13.928C2854.463,128.702,2854.083,129.144,2854.09,130.027z M2683.589,341.098
			c-0.277,0.242-0.542,0.402-0.711,0.632c-0.631,0.861-1.226,1.749-1.845,2.618c-0.589,0.828-1.182,1.654-1.793,2.466
			c-0.777,1.032-1.837,1.537-3.11,1.719c-1.051,0.15-2.096,0.382-3.122,0.66c-1.131,0.306-2.197,0.787-3.165,1.468
			c-2.033,1.431-2.788,3.424-2.531,5.835c0.258,2.416,1.2,4.61,2.305,6.74c0.111,0.214,0.308,0.384,0.513,0.634
			c0.385-0.231,0.739-0.418,1.065-0.644c2.51-1.734,5.02-3.469,7.52-5.219c1.333-0.933,2.677-1.854,3.955-2.859
			c0.834-0.656,1.601-1.413,2.316-2.2c0.692-0.761,1.202-1.681,1.25-2.726c0.043-0.955,0.012-1.939-0.168-2.875
			c-0.376-1.956-1.209-3.768-2-5.585C2683.972,341.543,2683.783,341.364,2683.589,341.098z M2742.891,489.44
			c1.118,1.195,2.22,1.845,3.217,2.624c0.962,0.752,1.932,1.494,2.924,2.206c1.022,0.733,1.946,1.615,3.09,2.194
			c0.32-0.213,0.577-0.369,0.818-0.548c1.551-1.154,3.104-2.305,4.643-3.474c1.134-0.861,2.265-1.728,3.366-2.63
			c0.908-0.744,1.667-1.63,2.366-2.579c1.091-1.482,1.211-2.98,0.205-4.533c-0.553-0.853-1.103-1.711-1.716-2.52
			c-1.66-2.188-3.351-4.354-5.04-6.52c-0.139-0.179-0.357-0.296-0.617-0.506c-0.169,0.315-0.322,0.517-0.393,0.745
			c-0.332,1.067-0.619,2.148-0.963,3.212c-0.829,2.562-1.628,5.135-2.547,7.665c-0.377,1.037-0.958,2.022-1.577,2.943
			c-0.717,1.068-1.797,1.637-3.109,1.653c-1.067,0.013-2.135-0.024-3.203-0.023C2743.97,489.349,2743.586,489.395,2742.891,489.44z
			 M2689.496,235.803c0.335-0.133,0.539-0.158,0.657-0.272c0.329-0.317,0.629-0.665,0.928-1.011
			c9.712-11.245,19.423-22.492,29.132-33.739c0.266-0.308,0.536-0.615,0.773-0.945c0.102-0.142,0.26-0.342-0.068-0.573
			c-0.274,0.101-0.615,0.185-0.915,0.345c-1.436,0.765-2.88,1.516-4.286,2.333c-5.761,3.35-10.931,7.431-15.295,12.495
			c-5.03,5.837-8.499,12.508-10.626,19.894C2689.674,234.754,2689.618,235.196,2689.496,235.803z M2816.066,130.182
			c1.188,0.64,2.308,0.494,3.408,0.349c2.273-0.299,4.483-0.877,6.657-1.6c6.392-2.127,12.458-4.975,18.31-8.292
			c2.702-1.532,5.345-3.162,7.779-5.098c1.112-0.884,2.169-1.85,3.154-2.873c0.551-0.572,0.919-1.327,1.336-2.019
			c0.122-0.203,0.188-0.482-0.115-0.739c-0.149,0.032-0.358,0.034-0.526,0.118c-13.202,6.558-26.402,13.122-39.598,19.692
			C2816.35,129.78,2816.277,129.935,2816.066,130.182z M2696.68,260.923c-0.35,0.088-0.597,0.1-0.793,0.208
			c-1.291,0.706-2.592,1.395-3.847,2.161c-1.773,1.081-3.13,2.585-4.108,4.409c-0.55,1.027-1.102,2.07-1.495,3.162
			c-1.168,3.244-2.277,6.51-3.371,9.78c-0.612,1.828-1.151,3.68-1.716,5.523c-0.101,0.328-0.268,0.673,0.088,0.991
			c0.135-0.028,0.295-0.031,0.424-0.095c0.318-0.157,0.629-0.33,0.93-0.517c3.098-1.926,5.418-4.564,7.12-7.77
			c1.075-2.024,1.896-4.154,2.633-6.317c1.243-3.65,2.341-7.353,4.033-10.836C2696.656,261.462,2696.635,261.253,2696.68,260.923z
			 M2887.619,523.51c-0.513-0.139-0.74-0.228-0.975-0.259c-1.708-0.227-3.422-0.417-5.127-0.668
			c-2.92-0.429-5.852-0.658-8.802-0.559c-0.909,0.031-1.817,0.144-2.72,0.261c-3.403,0.439-5.668,2.343-6.845,5.513
			c-0.563,1.517-0.949,3.1-1.394,4.659c-0.064,0.224-0.009,0.481-0.009,0.834c0.347-0.08,0.599-0.09,0.803-0.195
			c0.451-0.231,0.878-0.509,1.314-0.769c3.707-2.211,7.412-4.425,11.124-6.628c0.422-0.25,0.803-0.624,1.421-0.583
			c0.071,0.166,0.187,0.339,0.218,0.526c0.234,1.401,0.452,2.805,0.672,4.208c0.076,0.488,0.126,0.985,0.5,1.346
			c1.213-0.608,4.727-3.274,8.899-6.745C2886.96,524.233,2887.179,523.963,2887.619,523.51z M2714.672,452.5
			c0.457,0.595,1.095,0.963,1.877,1.257c0.625-0.426,1.256-0.844,1.875-1.28c2.865-2.015,5.732-4.029,8.587-6.059
			c0.394-0.28,0.928-0.461,1-1.065c-0.079-0.137-0.136-0.284-0.233-0.395c-2.109-2.405-4.22-4.809-6.342-7.203
			c-0.153-0.172-0.395-0.265-0.662-0.437c-0.188,0.329-0.36,0.576-0.48,0.846C2718.494,442.229,2714.972,451.205,2714.672,452.5z
			 M2693.382,383.413c-0.666,0.435-0.86,0.98-1.136,1.451c-2.515,4.297-5.019,8.6-7.526,12.902
			c-1.176,2.019-2.355,4.037-3.522,6.062c-0.164,0.285-0.456,0.57-0.14,1.039c0.349-0.153,0.73-0.268,1.057-0.472
			c1.55-0.969,3.112-1.922,4.618-2.958c1.552-1.067,2.964-2.314,4.244-3.702c1.425-1.544,2.616-3.239,3.362-5.221
			c1.04-2.761,0.904-5.473-0.349-8.132C2693.844,384.071,2693.624,383.794,2693.382,383.413z M2932.601,126.509
			c0.75,0.001,1.157-0.318,1.583-0.553c2.935-1.616,5.861-3.247,8.799-4.857c0.379-0.208,0.728-0.591,1.318-0.374
			c0.202,0.406,0.392,0.877,0.657,1.3c0.429,0.685,0.843,1.397,1.38,1.993c1.058,1.174,2.432,1.46,3.898,0.975
			c1.917-0.634,3.493-1.81,4.81-3.334c0.028-0.032,0.019-0.095,0.033-0.177c-0.067-0.105-0.118-0.272-0.231-0.349
			c-2.403-1.627-4.89-3.081-7.697-3.926c-2.943-0.886-5.616-0.355-8.053,1.461c-0.609,0.454-1.188,0.958-1.729,1.49
			c-1.71,1.682-3.115,3.612-4.442,5.6C2932.821,125.92,2932.768,126.12,2932.601,126.509z M2719.994,434.569
			c-1.871-3.027-3.771-5.969-5.651-8.923c-0.13-0.205-0.328-0.366-0.506-0.559c-0.174,0.125-0.339,0.185-0.406,0.301
			c-0.445,0.773-5.648,14.343-5.842,15.19c0.82,0.761,0.833,0.768,2.186,1.242C2711.026,441.167,2718.973,435.561,2719.994,434.569z
			 M2741.91,168.485c0.699-0.021,1.2-0.403,1.732-0.675c3.884-1.988,7.759-3.994,11.637-5.993c1.443-0.744,2.894-1.475,4.328-2.236
			c0.292-0.155,0.524-0.42,0.848-0.688c-0.596-1.095-1.14-2.122-1.714-3.133c-0.139-0.245-0.378-0.434-0.616-0.699
			c-0.503,0.264-0.952,0.49-1.391,0.734c-1.464,0.813-2.925,1.632-4.385,2.451c-3.63,2.034-7.26,4.067-10.887,6.107
			c-0.474,0.267-1.016,0.458-1.333,1.037C2740.625,166.484,2741.102,167.587,2741.91,168.485z M2786.312,495.688
			c-0.17,0.35-0.322,0.61-0.427,0.887c-1.387,3.656-2.771,7.313-4.144,10.974c-0.12,0.319-0.155,0.67-0.243,1.066
			c0.475,0.302,0.909,0.557,1.32,0.844c0.603,0.421,1.104,0.293,1.643-0.158c3.161-2.639,6.341-5.256,9.505-7.891
			c0.215-0.179,0.359-0.444,0.54-0.675c-0.16-0.187-0.236-0.33-0.354-0.404c-2.412-1.51-4.827-3.014-7.247-4.51
			C2786.784,495.746,2786.615,495.752,2786.312,495.688z M2804.385,525.12c2.701,0.521,4.96,1.563,7.244,2.542
			c0.745,0.319,1.517,0.593,2.299,0.803c2.75,0.737,5.118,0.021,7.114-1.978c0.135-0.135,0.207-0.334,0.31-0.506
			c-0.116-0.156-0.181-0.312-0.297-0.389c-2.96-1.976-5.924-3.946-8.893-5.909c-0.164-0.108-0.374-0.145-0.537-0.206
			c-0.887,0.451-5.491,3.833-6.771,4.98C2804.716,524.582,2804.633,524.766,2804.385,525.12z M3075.521,423.771
			c0.222-0.375,0.459-0.699,0.621-1.057c2.449-5.419,4.89-10.841,7.324-16.266c0.139-0.311,0.202-0.656,0.311-1.018
			c-1.025-0.711-2.083-1.14-3.183-1.458c-0.163,0.145-0.323,0.222-0.378,0.347c-2.576,5.806-5.145,11.616-7.705,17.429
			c-0.077,0.174-0.054,0.391-0.082,0.632C3073.364,423.03,3074.367,423.461,3075.521,423.771z M2731.629,198.414
			c0.64-0.16,0.998-0.531,1.388-0.83c5.569-4.259,11.134-8.524,16.7-12.788c0.282-0.216,0.583-0.416,0.829-0.669
			c0.151-0.156,0.212-0.4,0.346-0.669c-0.317-0.05-0.518-0.124-0.71-0.104c-0.604,0.061-1.209,0.136-1.807,0.242
			c-6.997,1.25-12.198,5.014-15.617,11.23c-0.462,0.839-0.778,1.763-1.115,2.664
			C2731.552,197.733,2731.629,198.038,2731.629,198.414z M2683.634,310.1c-0.265,0.183-0.451,0.273-0.586,0.411
			c-4.323,4.43-8.641,8.864-12.956,13.302c-0.137,0.141-0.226,0.329-0.329,0.482c0.606,1.004,0.894,1.289,2.077,2.048
			c0.183-0.105,0.419-0.201,0.608-0.356c2.864-2.346,5.741-4.677,8.57-7.066c0.768-0.649,1.413-1.453,2.06-2.231
			c0.522-0.628,0.877-1.369,1.031-2.179c0.251-1.316,0.092-2.625-0.139-3.927C2683.947,310.451,2683.806,310.34,2683.634,310.1z
			 M2697.265,393.803c-0.319,0.557-0.582,0.981-0.811,1.423c-0.865,1.665-1.72,3.335-2.575,5.006
			c-1.593,3.114-3.184,6.23-4.772,9.347c-0.174,0.342-0.456,0.667-0.281,1.109c0.185,0,0.358,0.052,0.471-0.008
			c2.597-1.386,5.18-2.806,7.405-4.761c0.716-0.63,1.36-1.373,1.91-2.153c0.813-1.153,1.148-2.493,0.988-3.9
			c-0.226-1.988-0.925-3.836-1.839-5.605C2697.697,394.138,2697.548,394.06,2697.265,393.803z M2676.574,392.212
			c0.581-0.249,0.724-0.775,0.972-1.2c1.282-2.189,2.545-4.39,3.814-6.586c1.091-1.889,2.188-3.775,3.266-5.672
			c0.16-0.281,0.471-0.573,0.113-1.046c-0.38,0.189-0.784,0.371-1.169,0.585c-1.729,0.961-3.452,1.933-5.179,2.898
			c-1.107,0.619-2.229,1.21-3.319,1.858c-0.563,0.335-1.109,0.723-1.593,1.164c-1.013,0.923-1.2,1.89-0.675,3.166
			c0.134,0.327,0.286,0.66,0.498,0.939c0.921,1.21,1.863,2.404,2.812,3.592C2676.227,392.053,2676.433,392.122,2676.574,392.212z
			 M2733.426,461.186c-0.52,0.204-0.814,0.279-1.067,0.425c-2.114,1.22-4.235,2.43-6.321,3.696
			c-0.778,0.473-1.506,1.048-2.189,1.652c-0.448,0.396-0.827,0.897-1.146,1.408c-0.406,0.651-0.413,1.384,0.02,2.023
			c0.366,0.54,0.78,1.084,1.285,1.486c0.952,0.759,1.98,1.423,2.988,2.109c0.195,0.133,0.444,0.186,0.805,0.332
			c0.086-0.159,0.169-0.29,0.231-0.43c1.753-3.95,3.506-7.899,5.25-11.853C2733.357,461.863,2733.35,461.656,2733.426,461.186z
			 M2694.708,420.77c0.416-0.081,0.66-0.087,0.87-0.176c2.241-0.948,4.445-1.976,6.503-3.285c0.638-0.406,1.246-0.875,1.809-1.381
			c1.568-1.409,2.001-3.107,1.188-5.085c-0.563-1.368-1.33-2.617-2.224-3.79c-0.085-0.112-0.238-0.173-0.372-0.266
			c-0.138,0.084-0.302,0.132-0.384,0.242C2701.551,407.759,2695.098,419.716,2694.708,420.77z M3034.257,464.155
			c-0.176,0.049-0.352,0.047-0.447,0.133c-4.024,3.647-8.041,7.3-12.053,10.959c-0.178,0.162-0.299,0.386-0.521,0.678
			c0.399,0.177,0.694,0.353,1.012,0.442c1.284,0.361,2.602,0.387,3.925,0.363c2.579-0.047,4.472-1.205,5.567-3.542
			c0.448-0.958,0.803-1.974,1.074-2.998c0.493-1.861,0.821-3.765,1.494-5.578C3034.351,464.493,3034.279,464.33,3034.257,464.155z
			 M3079.446,300.951c1.29-4.386,2.421-8.599,3.583-12.803c0.094-0.341,0.16-0.69,0.214-1.04c0.013-0.083-0.075-0.181-0.151-0.348
			c-0.196-0.035-0.441-0.131-0.678-0.113c-0.862,0.064-1.728,0.123-2.578,0.268c-0.697,0.118-1.388,0.316-2.057,0.548
			c-1.567,0.544-2.321,1.798-2.198,3.594c0.017,0.252,0.087,0.501,0.135,0.75c0.594,3.075,1.9,5.891,3.182,8.715
			C3078.949,300.634,3079.113,300.696,3079.446,300.951z M2946.229,521.342c0.552-0.388,0.973-0.66,1.368-0.965
			c1.974-1.52,3.943-3.047,5.911-4.574c1.446-1.122,2.895-2.241,4.329-3.378c0.21-0.166,0.576-0.276,0.436-0.751
			c-0.164-0.03-0.354-0.097-0.542-0.094c-2.235,0.041-4.477,0.008-6.688,0.411c-1.448,0.264-2.896,0.55-4.194,1.308
			c-1.297,0.757-2.014,1.902-1.983,3.38C2944.899,518.259,2945.301,519.777,2946.229,521.342z M2676.504,305.732
			c0.132,0.09,0.173,0.14,0.215,0.142c0.15,0.007,0.312,0.033,0.449-0.011c1.954-0.622,3.778-1.499,5.363-2.819
			c1.732-1.443,2.908-3.251,3.435-5.451c0.58-2.422,0.424-4.843-0.106-7.251c-0.048-0.216-0.242-0.399-0.431-0.696
			c-0.233,0.276-0.416,0.445-0.543,0.648C2683.295,292.831,2676.896,304.615,2676.504,305.732z M2671.43,373.756
			c1.079-0.785,3.711-3.834,8.825-10.183c0.209-0.26,0.371-0.557,0.668-1.009c-0.436,0-0.673-0.04-0.891,0.006
			c-2.631,0.552-5.228,1.223-7.645,2.435c-0.629,0.315-1.229,0.716-1.776,1.158c-1.282,1.037-1.637,2.422-1.21,3.968
			C2669.768,371.458,2670.415,372.662,2671.43,373.756z M3034.83,463.507c0.567-0.16,1.024-0.453,1.278-1.144
			C3035.263,462.61,3035.263,462.61,3034.83,463.507z"/>
		<path style="fill:#2D5EA7;" d="M2785.223,188.062c0.717-0.098,1.171,0.283,1.669,0.503c6.044,2.674,12.087,5.353,18.125,8.041
			c11.333,5.045,22.685,10.049,33.988,15.159c14.047,6.351,27.707,13.477,41.272,20.791c17.328,9.343,34.453,19.049,51.613,28.694
			c9.09,5.109,18.226,10.136,27.298,15.275c2.199,1.246,4.507,1.878,6.974,1.896c1.196,0.009,2.003,0.423,2.726,1.31
			c1.157,1.42,2.393,2.775,3.578,4.172c1.987,2.34,4.232,4.38,6.74,6.162c11.739,8.34,23.453,16.715,35.174,25.08
			c9.113,6.503,18.186,13.061,27.102,19.832c1.418,1.076,2.817,2.183,4.154,3.357c0.835,0.734,1.62,1.558,2.281,2.451
			c1.174,1.588,1.137,3.22-0.076,4.78c-0.62,0.798-1.347,1.53-2.112,2.194c-1.074,0.933-2.203,1.808-3.352,2.649
			c-10.559,7.723-21.371,15.07-32.537,21.891c-6.991,4.271-14.175,8.2-21.364,12.122c-32.634,17.807-65.544,35.09-98.596,52.106
			c-16.187,8.333-32.627,16.138-49.134,23.807c-7.746,3.599-15.493,7.195-23.229,10.815c-2.697,1.262-5.512,2.016-8.467,2.383
			c-1.78,0.221-3.551,0.27-5.329,0.218c-2.25-0.067-4.44-0.501-6.533-1.348c-3.794-1.535-6.368-4.299-7.934-8.027
			c-0.851-2.024-1.374-4.145-1.618-6.333c-0.366-3.284-0.765-6.564-1.127-9.849c-0.256-2.325-0.464-4.655-0.714-6.98
			c-0.256-2.376-0.552-4.747-0.802-7.123c-0.256-2.427-0.472-4.858-0.717-7.286c-0.26-2.58-0.535-5.158-0.798-7.738
			c-0.124-1.214-0.247-2.428-0.345-3.645c-0.242-2.991-0.47-5.982-0.702-8.974c-0.271-3.499-0.553-6.997-0.807-10.497
			c-0.136-1.877-0.244-3.757-0.323-5.638c-0.141-3.355-0.279-6.711-0.365-10.068c-0.153-5.952-0.298-11.905-0.388-17.858
			c-0.123-8.091-0.263-16.182-0.267-24.274c-0.01-17.355,0.033-34.711,0.11-52.066c0.039-8.804,0.183-17.608,0.31-26.412
			c0.058-4.02,0.158-8.04,0.295-12.057c0.113-3.305,0.312-6.606,0.466-9.91c0.142-3.049,0.257-6.1,0.416-9.149
			c0.135-2.59,0.319-5.178,0.479-7.768c0.113-1.828,0.228-3.655,0.331-5.484c0.139-2.489,0.258-4.979,0.403-7.468
			c0.151-2.59,0.324-5.178,0.482-7.768c0.047-0.762,0.069-1.525,0.113-2.287c0.095-1.625,0.134-3.257,0.315-4.873
			C2784.187,191.209,2784.752,189.628,2785.223,188.062z M2792.123,322.48c1.691-2.237,3.283-4.344,4.875-6.45
			c1.596-2.111,3.192-4.222,4.787-6.334c1.594-2.112,3.187-4.226,4.782-6.338c1.595-2.112,3.194-4.221,4.789-6.333
			c1.595-2.112,3.186-4.227,4.781-6.339c1.595-2.112,3.202-4.215,4.786-6.334c1.58-2.112,3.234-4.171,4.736-6.362
			c-0.556-0.801-1.209-1.312-1.987-1.647c-0.706,0.284-1.115,0.826-1.592,1.269c-7.314,6.784-14.619,13.579-21.932,20.365
			c-0.396,0.368-0.737,0.831-1.367,1.044c-0.552-0.685-1.291-1.158-1.669-2.046c2.345-2.721,4.667-5.417,6.99-8.112
			c2.359-2.737,4.729-5.466,7.076-8.214c2.309-2.703,4.701-5.336,6.904-8.086c-0.664-1.036-0.664-1.036-1.633-1.651
			c-0.54,0.071-0.879,0.481-1.269,0.794c-1.745,1.403-3.479,2.821-5.217,4.233c-6.203,5.038-12.404,10.077-18.611,15.11
			c-0.421,0.341-0.807,0.753-1.337,0.946c-0.712-1.461-0.66-1.907,0.306-2.908c0.282-0.293,0.579-0.573,0.874-0.854
			c11.205-10.672,22.418-21.335,33.607-32.024c1.376-1.315,2.795-2.515,4.614-3.162c0.238-0.085,0.455-0.226,0.679-0.346
			c3.763-2.024,7.526-4.048,11.289-6.073c0.269-0.145,0.551-0.275,0.789-0.46c0.176-0.137,0.29-0.353,0.501-0.622
			c-0.662-0.301-1.203-0.569-1.761-0.796c-2.354-0.957-4.718-1.89-7.068-2.858c-0.448-0.184-1.013-0.244-1.24-0.879
			c0.641-3.079,1.296-6.211,1.939-9.346c0.047-0.228,0.006-0.474,0.006-0.846c-0.459,0.153-0.801,0.224-1.103,0.375
			c-2.864,1.434-5.727,2.872-8.58,4.328c-2.453,1.252-4.791,2.695-6.955,4.401c-2.198,1.733-4.385,3.48-6.538,5.269
			c-4.775,3.969-9.544,7.945-14.277,11.964c-1.938,1.646-3.823,3.361-5.647,5.131c-1.906,1.849-3.532,3.942-4.823,6.274
			c-1.656,2.992-2.557,6.18-2.545,9.626c0.008,2.155,0.304,4.255,0.853,6.33c0.129,0.488,0.273,0.993,0.271,1.49
			c-0.012,2.9-0.098,5.799-0.101,8.699c-0.013,12.217-0.006,24.433-0.006,36.65c0,2.221-0.059,2,1.953,2.58
			c1.923,0.555,1.577,0.895,3.237-0.899c8.367-9.04,16.737-18.077,25.106-27.115c2.87-3.1,5.746-6.195,8.604-9.306
			c0.438-0.476,0.995-0.88,1.175-1.54c-0.942-1.238-1.258-1.521-2.31-2.043c-0.338,0.327-0.714,0.661-1.058,1.026
			c-5.206,5.515-10.407,11.035-15.609,16.553c-3.875,4.111-7.748,8.225-11.63,12.33c-0.302,0.319-0.54,0.754-1.173,0.795
			C2793.051,323.397,2792.661,323.011,2792.123,322.48z M2797.389,344.863c0.401-0.55,0.722-1.007,1.06-1.451
			c10.281-13.53,20.563-27.058,30.845-40.587c0.246-0.324,0.507-0.639,0.721-0.984c0.121-0.195,0.162-0.441,0.25-0.697
			c-0.718-0.348-1.391-0.157-2.028-0.249c-1.008-0.145-1.718,0.272-2.403,0.989c-2.566,2.685-5.189,5.316-7.778,7.98
			c-9.253,9.526-18.503,19.056-27.745,28.593c-0.564,0.582-1.102,1.203-1.562,1.868c-0.835,1.206-1.164,2.54-1.064,4.039
			c0.198,2.943,0.276,5.893,0.41,8.84c0.129,2.845,0.259,5.691,0.402,8.536c0.1,1.981,0.219,3.961,0.334,5.941
			c0.159,2.742,0.326,5.483,0.482,8.224c0.118,2.082,0.222,4.165,0.34,6.246c0.011,0.198,0.084,0.393,0.139,0.636
			c0.698,0.513,1.542,0.728,2.349,1.016c0.308,0.11,0.604,0.02,0.83-0.231c0.374-0.416,0.751-0.829,1.113-1.255
			c9.032-10.62,18.062-21.242,27.092-31.864c3.493-4.109,6.99-8.216,10.476-12.331c0.352-0.415,0.808-0.775,0.941-1.462
			c-0.547-0.625-1.078-1.287-1.82-1.707c-0.64,0.126-0.982,0.602-1.39,0.969c-4.271,3.849-8.535,7.707-12.801,11.562
			c-5.587,5.049-11.173,10.1-16.764,15.145c-0.366,0.33-0.682,0.754-1.314,0.863c-0.361-0.385-0.733-0.782-1.103-1.176
			c0.229-0.63,0.641-1.02,0.988-1.446c7.749-9.503,15.503-19.002,23.255-28.503c5.147-6.308,10.292-12.616,15.433-18.928
			c0.346-0.424,0.772-0.805,0.952-1.484c-0.774-0.667-1.388-1.541-2.448-1.969c-0.295,0.259-0.575,0.473-0.818,0.724
			c-0.779,0.804-1.564,1.603-2.311,2.436c-4.278,4.775-8.541,9.563-12.817,14.34c-3.191,3.565-6.469,7.048-9.959,10.324
			c-3.009,2.824-6.16,5.475-9.546,7.84c-0.362,0.253-0.758,0.457-1.125,0.676C2798.384,345.901,2797.855,345.52,2797.389,344.863z
			 M2819.623,453.387c0.582-0.693,1.128-1.357,1.688-2.009c13.14-15.277,26.281-30.553,39.422-45.829
			c4.978-5.786,9.957-11.572,14.927-17.365c0.354-0.413,0.825-0.763,0.96-1.417c-0.734-0.882-1.535-1.682-2.66-2.245
			c-0.879,0.764-1.729,1.483-2.558,2.226c-8,7.175-15.562,14.793-22.895,22.643c-8.408,9-16.505,18.279-24.632,27.531
			c-8.429,9.596-16.891,19.164-25.733,28.386c-0.211,0.22-0.419,0.447-0.588,0.698c-0.072,0.106-0.039,0.283-0.06,0.494
			c0.279,0.013,0.531,0.066,0.77,0.031c3.769-0.558,7.516-1.24,11.213-2.163c10.662-2.659,20.804-6.645,30.408-11.988
			c6.646-3.697,12.895-7.965,18.548-13.072c3.944-3.563,7.497-7.466,10.333-11.986c1.22-1.944,2.263-3.977,3.041-6.139
			c0.094-0.262,0.088-0.56,0.141-0.927c-0.639,0.075-0.894,0.485-1.205,0.792c-3.876,3.824-7.745,7.655-11.617,11.483
			c-2.027,2.004-4.051,4.009-6.087,6.003c-0.314,0.308-0.573,0.741-1.185,0.696c-0.273-0.221-0.6-0.461-0.9-0.733
			c-0.33-0.299-0.635-0.625-0.999-0.987c0.365-0.46,0.664-0.863,0.988-1.243c1.917-2.244,3.84-4.483,5.76-6.724
			c4.47-5.217,8.941-10.432,13.404-15.654c0.353-0.413,0.812-0.771,0.933-1.394c-0.485-0.674-1.058-1.218-1.845-1.635
			c-0.323,0.261-0.655,0.49-0.94,0.767c-2.116,2.057-4.27,4.079-6.322,6.198c-4.992,5.154-9.912,10.377-14.903,15.531
			c-5.593,5.776-11.227,11.512-16.86,17.248c-0.602,0.613-1.273,1.177-1.983,1.658c-1.325,0.899-5.707,2.582-7.572,2.976
			C2820.259,454.744,2819.9,454.208,2819.623,453.387z M2810.494,446.444c-0.751-0.333-1.447-0.399-2.147-0.455
			c-1.127-0.089-2.213-0.352-3.197-0.92c-1.114-0.643-1.542-1.612-1.204-2.844c0.187-0.68,0.469-1.35,0.813-1.966
			c0.47-0.842,1.014-1.646,1.572-2.434c3.322-4.694,6.66-9.377,9.982-14.07c0.286-0.403,0.694-0.764,0.647-1.414
			c-0.694-0.723-1.464-1.428-2.391-1.893c-0.629,0.289-0.851,0.834-1.169,1.279c-1.832,2.569-3.641,5.154-5.472,7.724
			c-0.546,0.766-0.654,0.797-1.517,0.423c-2.145-0.931-4.283-1.879-6.417-2.835c-0.26-0.117-0.482-0.318-0.797-0.532
			c0.313-0.499,0.563-0.933,0.847-1.343c2.257-3.265,4.521-6.525,6.783-9.788c2.638-3.806,5.279-7.61,7.907-11.423
			c0.278-0.403,0.698-0.761,0.627-1.383c-0.434-0.453-0.869-0.939-1.653-1.053c-0.416,0.441-0.838,0.876-1.246,1.324
			c-3.428,3.763-6.849,7.532-10.283,11.289c-0.365,0.399-0.643,0.935-1.322,1.029c-0.762-0.537-1.534-1.088-2.089-1.953
			c0.334-0.5,0.639-0.967,0.954-1.426c9.907-14.432,19.816-28.863,29.724-43.296c0.662-0.965,1.32-1.933,1.972-2.905
			c0.135-0.201,0.309-0.416,0.055-0.751c-0.149,0.027-0.343,0.035-0.518,0.098c-0.718,0.257-1.422,0.552-2.145,0.791
			c-1.091,0.361-1.962,0.995-2.741,1.846c-6.356,6.949-12.751,13.861-19.103,20.813c-4.188,4.585-8.312,9.228-12.494,13.819
			c-1.03,1.131-1.718,2.402-1.928,3.901c-0.134,0.952-0.211,1.925-0.183,2.885c0.109,3.815,0.269,7.628,0.411,11.442
			c0.008,0.203,0.03,0.406,0.04,0.609c0.159,3.201,0.323,6.402,0.476,9.604c0.139,2.897,0.261,5.795,0.402,8.692
			c0.099,2.033,0.21,4.065,0.326,6.097c0.156,2.743,0.309,5.486,0.49,8.227c0.057,0.859,0.125,1.729,0.312,2.566
			c0.366,1.636,0.811,3.255,1.247,4.875c0.057,0.212,0.254,0.387,0.388,0.582c1.104-0.805,10.2-10.531,13.5-14.42
			C2810.14,447.036,2810.278,446.772,2810.494,446.444z M2894.125,302.172c-0.898,0.542-1.289,1.269-1.77,1.898
			c-12.905,16.892-25.802,33.79-38.702,50.686c-3.703,4.851-7.411,9.698-11.105,14.555c-0.329,0.432-0.793,0.806-0.817,1.477
			c0.534,0.577,1.118,1.112,1.988,1.39c0.789-0.547,1.596-1.075,2.369-1.647c3.812-2.823,7.299-6.019,10.615-9.397
			c10.73-10.928,20.163-22.885,28.277-35.875c2.641-4.229,5.046-8.59,6.969-13.201c0.94-2.255,1.74-4.556,2.164-6.972
			C2894.273,304.189,2894.382,303.289,2894.125,302.172z M2888.282,338.345c-0.752,0.339-1.104,0.855-1.516,1.291
			c-5.66,5.987-11.32,11.975-16.966,17.976c-1.82,1.935-1.539,1.283-1.615,3.868c-0.11,3.7-0.898,7.248-2.221,10.689
			c-1.1,2.858-2.555,5.536-4.178,8.125c-1.728,2.757-3.507,5.482-5.207,8.256c-1.436,2.344-2.66,4.799-3.511,7.426
			c-0.138,0.427-0.37,0.837-0.093,1.411c0.305-0.199,0.611-0.349,0.857-0.567c4.654-4.104,9.327-8.186,13.941-12.334
			c4.125-3.709,8.053-7.621,11.66-11.844c3.679-4.307,6.918-8.915,9.517-13.958c0.232-0.451,0.477-0.902,0.646-1.378
			c0.074-0.21,0.068-0.571-0.063-0.71c-0.683-0.726-1.26-1.584-2.303-2.056c-0.287,0.389-0.571,0.737-0.815,1.112
			c-2.467,3.793-4.926,7.592-7.39,11.387c-0.273,0.42-0.569,0.826-0.844,1.225c-1.352-0.616-3.41-2.128-4.098-3.013
			c0.251-0.405,0.507-0.838,0.782-1.259c2.063-3.147,4.128-6.291,6.194-9.436c2.847-4.335,5.699-8.666,8.535-13.008
			c0.294-0.45,0.744-0.851,0.696-1.575C2889.659,339.46,2888.996,338.924,2888.282,338.345z M2844.075,337.245
			c0.802,0.124,1.229-0.288,1.684-0.56c2.719-1.623,5.186-3.584,7.54-5.691c4.792-4.289,9.065-9.059,13.021-14.117
			c4.018-5.137,7.68-10.512,10.699-16.306c1.317-2.528,2.5-5.117,3.304-7.86c0.228-0.777,0.372-1.579,0.537-2.374
			c0.052-0.254,0.028-0.511-0.391-0.633c-0.392,0.3-0.849,0.618-1.27,0.977c-1.239,1.056-2.45,2.144-3.698,3.189
			c-1.247,1.044-2.497,2.089-3.798,3.065c-1.601,1.201-3.398,1.975-5.35,2.491c-5.758,1.523-9.722,5.1-11.856,10.677
			c-0.645,1.685-0.825,3.457-0.938,5.234c-0.174,2.735-0.935,5.303-2.193,7.715c-0.845,1.621-1.804,3.183-2.725,4.763
			c-0.87,1.493-1.785,2.962-2.628,4.47C2845.166,333.798,2844.59,335.424,2844.075,337.245z M2955.73,324.194
			c-0.463-0.005-0.77-0.091-1.004,0.004c-0.752,0.304-1.52,0.607-2.204,1.034c-1.335,0.833-2.664,1.691-3.914,2.645
			c-3.324,2.538-6.322,5.444-9.195,8.473c-10.785,11.37-20.245,23.763-28.489,37.087c-2.222,3.591-4.284,7.275-5.971,11.151
			c-0.688,1.58-1.226,3.226-1.809,4.851c-0.092,0.256-0.06,0.556-0.088,0.865c0.199-0.039,0.34-0.023,0.387-0.082
			c17.244-21.705,34.482-43.415,51.717-65.127C2955.341,324.869,2955.472,324.606,2955.73,324.194z M2885.074,300.488
			c2.101-0.459,8.574-5.94,12.25-10.331c4.958-5.922,10.409-16.932,10.572-21.429c-2.088-1.602-4.481-2.853-6.622-4.48
			c0.214-0.849,0.685-1.458,1.034-2.123c1.015-1.935,2.041-3.864,3.053-5.8c0.626-1.198,0.58-2.429,0.22-3.704
			c-0.268-0.948-0.779-1.506-1.791-1.569c-0.353-0.022-0.7-0.151-1.052-0.162c-1.606-0.052-3.051,0.254-3.861,1.864
			c-0.045,0.09-0.122,0.163-0.177,0.248c-3.459,5.334-6.919,10.666-10.37,16.005c-0.187,0.289-0.299,0.626-0.436,0.92
			c1.196,1.137,1.207,1.139,2.511,0.423c0.223-0.122,0.442-0.252,0.663-0.376c2.923-1.648,5.845-3.3,8.773-4.939
			c0.24-0.134,0.472-0.429,0.825-0.174c-0.069,1.051-0.116,2.111-0.212,3.167c-0.202,2.244-0.694,4.394-1.775,6.416
			c-2.396,4.484-4.692,9.021-7.071,13.514c-1.975,3.729-4.015,7.424-6.015,11.14
			C2885.362,299.523,2885.029,299.929,2885.074,300.488z M3028.647,340.906c-0.083-0.06-0.166-0.12-0.249-0.18
			c-0.216,0.117-0.444,0.215-0.645,0.354c-19.175,13.219-38.349,26.44-57.518,39.668c-0.069,0.048-0.082,0.179-0.12,0.271
			c0.446,1.065,0.446,1.065,1.355,1.952c0.689,0.098,1.278-0.25,1.881-0.494c3.019-1.224,5.906-2.72,8.748-4.306
			c8.049-4.493,15.716-9.576,23.164-14.996c5.061-3.683,9.99-7.534,14.632-11.74c2.188-1.982,4.333-4.015,6.179-6.325
			c0.854-1.067,1.572-2.244,2.324-3.389C3028.548,341.493,3028.567,341.18,3028.647,340.906z M3022.779,333.441
			c-0.156-0.432-0.189-0.635-0.293-0.792c-0.911-1.372-2.169-2.29-3.764-2.676c-1.29-0.312-2.609-0.426-3.938-0.214
			c-0.401,0.064-0.807,0.102-1.212,0.133c-2.159,0.166-4.229-0.035-6.237-1.007c-1.698-0.822-3.55-1.16-5.47-1.178
			c-2.442-0.022-4.489,0.84-6.148,2.563c-0.876,0.91-1.673,1.925-2.347,2.993c-0.894,1.416-1.689,2.902-2.426,4.407
			c-1.75,3.57-3.73,7.001-5.974,10.283c-1.781,2.604-3.561,5.208-5.337,7.815c-0.229,0.336-0.477,0.67-0.631,1.04
			c-0.083,0.201-0.079,0.55,0.044,0.706c0.522,0.663,1,1.388,1.833,1.847c0.323-0.339,0.618-0.61,0.869-0.918
			c0.899-1.105,1.779-2.226,2.675-3.335c2.879-3.564,5.801-7.09,9.07-10.312c2.692-2.653,5.581-5.059,8.848-6.977
			c4.784-2.808,9.925-4.391,15.505-4.411c1.068-0.004,2.137,0.022,3.206,0.031C3021.552,333.444,3022.054,333.441,3022.779,333.441z
			 M2877.018,272.061c-0.657,0.037-1.039,0.398-1.46,0.673c-8.463,5.52-15.899,12.186-22.302,20.001
			c-6.329,7.725-11.385,16.225-15.419,25.347c-0.123,0.279-0.234,0.563-0.342,0.847c-0.07,0.183-0.143,0.378,0.202,0.505
			c0.151-0.153,0.346-0.31,0.492-0.505c3.799-5.065,8.185-9.598,12.683-14.031c3.697-3.644,7.417-7.266,11.055-10.968
			c3.716-3.78,7.141-7.812,10.099-12.224c1.731-2.582,3.285-5.265,4.565-8.101C2876.794,273.155,2877.109,272.73,2877.018,272.061z
			 M2845.489,238.325c0.323-0.042,0.615-0.052,0.892-0.12c1.872-0.463,3.742-0.935,5.611-1.412c3.198-0.816,6.395-1.637,9.591-2.458
			c0.342-0.088,0.685-0.242,1.02,0.167c-0.036,0.25-0.052,0.552-0.128,0.84c-0.297,1.13-0.612,2.255-0.921,3.382
			c-0.632,2.303-1.276,4.602-1.886,6.91c-0.123,0.466-0.4,0.943-0.161,1.46c0.614,0.051,0.946-0.394,1.34-0.686
			c1.961-1.454,3.906-2.929,5.857-4.398c2.397-1.805,4.798-3.606,7.188-5.421c0.346-0.263,0.811-0.447,0.883-1.031
			c-0.322-0.475-0.888-0.617-1.371-0.856c-5.649-2.792-11.305-5.57-16.959-8.352c-3.556-1.75-7.11-3.504-10.669-5.247
			c-0.441-0.216-0.851-0.578-1.472-0.413c-0.624,0.862-1.324,1.717-1.584,2.903c0.446,0.37,0.862,0.735,1.299,1.074
			c1.245,0.968,2.503,1.919,3.744,2.891c0.31,0.243,0.577,0.542,0.916,0.863c-0.18,0.571-0.329,1.103-0.515,1.623
			c-0.804,2.249-1.619,4.494-2.429,6.74C2845.568,237.248,2845.309,237.698,2845.489,238.325z M2927.319,320.93
			c-0.582,0.202-0.815,0.684-1.118,1.079c-8.69,11.339-17.38,22.676-26.053,34.028c-2.685,3.514-5.305,7.078-7.984,10.598
			c-0.617,0.81-0.997,1.644-0.832,2.67c0.233,1.451,0.579,2.873,1.012,4.266c0.28,0.066,0.473,0.148,0.668,0.153
			c2.127,0.053,1.894,0.025,2.859-1.423c10.825-16.24,21.643-32.486,32.46-48.731c0.278-0.418,0.531-0.852,0.792-1.275
			C2928.64,321.547,2928.002,321.183,2927.319,320.93z M2824.684,224.576c-0.607,0.257-1.046,0.764-1.535,1.197
			c-7.957,7.055-15.91,14.113-23.864,21.172c-4.605,4.086-9.212,8.17-13.809,12.265c-0.446,0.397-1.003,0.711-1.207,1.327
			c0.85,1.387,1.697,2.281,2.554,2.699c0.913-0.597,38.773-32.847,40.649-34.635c0.176-0.167,0.311-0.377,0.446-0.545
			C2827.191,226.83,2825.665,225.193,2824.684,224.576z M2802.755,231.164c0.649-0.234,1.053-0.627,1.485-0.974
			c3.333-2.672,6.664-5.346,9.994-8.021c2.815-2.261,5.63-4.521,8.437-6.793c0.338-0.273,0.813-0.466,0.799-1.09
			c-0.302-0.126-0.616-0.296-0.951-0.389c-2.885-0.8-5.762-1.632-8.665-2.361c-2.261-0.568-4.53-1.106-6.902-1.07
			c-2.405,0.037-4.195,1.033-5.429,3.068c-1.039,1.713-1.665,3.589-2.127,5.524c-0.05,0.208,0.046,0.451,0.085,0.757
			c1.059-0.225,1.908-0.691,2.796-1.039c0.946-0.371,1.875-0.784,2.823-1.148c0.876-0.336,1.693-0.856,2.825-1.018
			c-0.283,0.608-0.477,1.064-0.702,1.503c-1.835,3.571-3.683,7.135-5.508,10.711c-0.221,0.433-0.611,0.841-0.383,1.547
			C2801.76,230.61,2802.279,230.899,2802.755,231.164z M2931.359,270.669c-0.636,1.103-1.217,2.114-1.801,3.124
			c-0.585,1.012-1.173,2.023-1.758,3.035c-0.585,1.012-1.178,2.02-1.75,3.039c-0.565,1.008-1.23,1.966-1.708,3.127
			c0.655,0.56,1.137,1.215,2.022,1.47c0.464-0.3,0.936-0.594,1.396-0.906c3.323-2.256,6.643-4.515,9.963-6.774
			c1.261-0.858,2.527-1.709,3.775-2.584c0.268-0.188,0.471-0.468,0.795-0.799c-0.517-0.355-0.917-0.653-1.339-0.917
			c-1.463-0.919-2.934-1.827-4.402-2.739c-3.109-1.931-6.214-3.868-9.331-5.785c-0.461-0.284-0.877-0.714-1.685-0.647
			c-0.036,0.055-0.153,0.221-0.261,0.392c-2.113,3.354-4.227,6.708-6.333,10.068c-0.074,0.118-0.061,0.291-0.096,0.477
			c0.458,0.544,0.986,0.987,1.783,1.204c3.063-1.914,6.009-4.079,9.084-5.995C2930.367,269.739,2930.849,270.087,2931.359,270.669z
			 M2926.447,369.742c0.536-0.431,0.903-0.695,1.236-0.998c11.564-10.498,23.128-20.997,34.685-31.504
			c2.084-1.894,2.187-2.199,2.064-5.041c-0.007-0.152,0.009-0.31-0.025-0.456c-0.064-0.282-0.156-0.558-0.228-0.805
			c-0.915-0.26-1.69,0.104-2.489,0.172c-1.235,0.106-2.228,0.64-3.019,1.582c-0.196,0.233-0.418,0.445-0.628,0.666
			c-7.067,7.464-13.928,15.114-20.636,22.902c-3.453,4.009-6.866,8.052-10.289,12.087
			C2926.839,368.677,2926.435,368.953,2926.447,369.742z M2912.109,351.811c0.726-0.023,1.162-0.405,1.624-0.698
			c2.073-1.311,3.933-2.892,5.694-4.591c3.859-3.723,7.243-7.849,10.312-12.238c2.219-3.173,4.247-6.459,5.883-9.975
			c0.795-1.709,1.512-3.455,1.83-5.32c0.143-0.84,0.099-1.716,0.086-2.575c-0.004-0.285-0.146-0.593-0.599-0.633
			c-0.112,0.105-0.285,0.218-0.395,0.376c-8.148,11.745-16.292,23.493-24.429,35.245
			C2912.069,351.467,2912.109,351.591,2912.109,351.811z M2932.928,295.011c0.445-0.341,0.893-0.664,1.319-1.013
			c2.833-2.319,5.663-4.644,8.493-6.967c2.634-2.162,5.27-4.321,7.895-6.494c0.333-0.275,0.821-0.469,0.765-1.036
			c-0.066-0.088-0.11-0.192-0.189-0.243c-2.18-1.402-4.362-2.802-6.552-4.189c-0.155-0.098-0.376-0.09-0.609-0.14
			c-0.216,0.25-0.428,0.465-0.606,0.705c-4.104,5.566-8.206,11.134-12.299,16.709c-0.17,0.232-0.254,0.526-0.382,0.801
			C2931.408,293.875,2932.019,294.538,2932.928,295.011z M2788.106,244.366c0.63-0.365,0.88-0.881,1.198-1.325
			c2.804-3.924,5.597-7.856,8.393-11.786c1.265-1.779,2.533-3.556,3.788-5.342c0.187-0.267,0.505-0.524,0.242-0.992
			c-0.168,0-0.376-0.045-0.556,0.007c-3.213,0.927-6.451,1.787-9.553,3.052c-1.168,0.476-2.305,1.065-3.375,1.733
			c-2.156,1.345-2.977,3.361-2.702,5.862c0.318,2.9,1.276,5.627,2.236,8.354C2787.821,244.058,2787.948,244.16,2788.106,244.366z
			 M2919.871,395.346c0.667-0.33,1.023-0.905,1.451-1.394c7.738-8.83,15.468-17.666,23.2-26.501
			c0.335-0.382,0.685-0.753,0.997-1.153c0.176-0.226,0.286-0.503,0.438-0.78c-0.702-0.747-1.342-1.441-2.208-1.815
			c-1.061,0.857-22.721,25.221-25.682,28.874c-0.186,0.229-0.318,0.501-0.491,0.778
			C2918.251,394.179,2918.968,394.868,2919.871,395.346z M2928.882,289.095c-0.169-0.061-0.271-0.137-0.351-0.119
			c-0.244,0.057-0.489,0.13-0.716,0.234c-2.88,1.32-5.257,3.26-7.131,5.814c-1.087,1.481-2.006,3.065-2.738,4.747
			c-0.75,1.723-1.467,3.462-2.145,5.214c-1.377,3.559-2.769,7.107-5.074,10.205c-0.105,0.142-0.101,0.366-0.157,0.591
			c1.057,0.668,2.021,1.394,3.194,1.68c0.657-0.86,14.165-25.927,15.004-27.833C2928.842,289.462,2928.847,289.266,2928.882,289.095
			z M2830.332,282.382c0.223-0.29,0.462-0.606,0.706-0.917c1.067-1.356,2.077-2.763,3.221-4.052c1.145-1.29,2.427-2.458,3.645-3.683
			c1.397-1.406,2.816-2.791,4.176-4.231c1.365-1.444,2.544-3.038,3.521-4.773c1.109-1.969,1.798-4.084,2.15-6.31
			c0.068-0.429,0.164-0.884-0.109-1.274c-0.159,0.013-0.288-0.017-0.347,0.034c-0.385,0.328-0.773,0.655-1.125,1.016
			c-5.899,6.056-11.118,12.684-16.256,19.378c-0.834,1.087-1.31,2.166-1.669,3.531
			C2829.089,281.908,2829.089,281.908,2830.332,282.382z M2847.348,289.617c0.61-0.213,0.836-0.694,1.136-1.09
			c1.661-2.185,3.312-4.378,4.967-6.568c3.309-4.38,6.621-8.758,9.924-13.144c0.325-0.432,0.746-0.824,0.867-1.443
			c-0.971-0.853-1.917-1.661-3.067-2.144c-0.932,0.924-9.126,12.258-15.586,21.542c-0.226,0.324-0.41,0.677-0.637,1.056
			C2845.667,288.647,2846.486,289.196,2847.348,289.617z M2879.536,259.993c1.099-0.623,12.039-9.917,15.371-13.053
			c0.212-0.2,0.374-0.453,0.595-0.725c-0.677-0.687-1.532-0.895-2.288-1.271c-0.773-0.385-1.549-0.766-2.344-1.101
			c-0.781-0.328-1.495-0.848-2.421-0.932c-0.235,0.291-0.478,0.548-0.671,0.839c-3.148,4.744-6.292,9.491-9.429,14.241
			c-0.159,0.241-0.26,0.52-0.404,0.813c0.322,0.291,0.566,0.545,0.844,0.753C2879.027,259.735,2879.304,259.86,2879.536,259.993z
			 M2956.854,310.254c0.54-0.177,0.784-0.229,1.004-0.333c3.449-1.629,6.785-3.448,9.763-5.862c1.188-0.962,2.277-2.023,3.189-3.256
			c0.765-1.036,1.31-2.172,1.505-3.454c0.275-1.809-0.859-3.807-2.562-4.54c-0.796,0.762-11.173,14.479-12.566,16.624
			C2957.084,309.591,2957.04,309.788,2956.854,310.254z M2856.723,337.592c-0.563,0.256-0.775,0.675-1.034,1.038
			c-1.063,1.487-2.114,2.983-3.172,4.473c-2.322,3.271-4.649,6.538-6.962,9.815c-0.284,0.402-0.7,0.759-0.625,1.449
			c0.475,0.404,0.982,0.888,1.788,1.102c0.326-0.257,0.697-0.517,1.03-0.818c1.055-0.953,2.137-1.881,3.133-2.894
			c1.422-1.447,2.832-2.915,4.138-4.465c0.745-0.883,1.33-1.916,1.888-2.936c0.811-1.483,0.897-3.111,0.644-4.746
			C2857.444,338.924,2857.311,338.206,2856.723,337.592z M2925.434,370.68c-0.814,0.302-2.649,1.796-3.041,2.385
			c-0.253,0.38-0.094,0.663,0.424,0.861C2923.778,372.961,2924.684,371.899,2925.434,370.68z"/>
		<path style="fill:#2D5EA7;" d="M2790.364,274.99c-0.311-0.469-0.524-0.792-0.722-1.09c0.885-1.119,28.929-27.271,32.516-30.336
			c0.145-0.124,0.326-0.204,0.587-0.364c0.553,1.25,0.793,2.463,0.658,3.74c-0.159,1.504-0.699,2.877-1.688,4.019
			c-0.762,0.881-1.6,1.704-2.463,2.488c-0.675,0.614-1.433,1.138-2.167,1.685c-8.241,6.134-16.484,12.265-24.727,18.396
			C2791.75,273.981,2791.135,274.426,2790.364,274.99z"/>
		<g>
			<path style="fill:#2D5EA7;" d="M329.022,517.954l-134.578,6.46l-1.077-124.35h-61.906l-3.768,117.89H7.111L17.339,139.52
				l128.118,5.921l-8.075,193.254h59.753l0.538-207.789l122.735,3.23L329.022,517.954z"/>
			<path style="fill:#2D5EA7;" d="M687.269,327.93c0,16.329-1.884,32.074-5.652,47.237s-9.196,29.383-16.284,42.661
				c-7.088,13.278-15.701,25.435-25.839,36.471c-10.138,11.035-21.532,20.501-34.183,28.396
				c-12.65,7.895-26.422,14.041-41.315,18.437c-14.893,4.396-30.684,6.594-47.372,6.594c-16.149,0-31.536-2.064-46.16-6.191
				c-14.624-4.127-28.306-9.914-41.046-17.361c-12.74-7.447-24.269-16.419-34.587-26.916c-10.318-10.497-19.11-22.161-26.377-34.99
				c-7.267-12.83-12.919-26.602-16.957-41.315c-4.037-14.714-6.056-30.056-6.056-46.026c0-15.611,1.884-30.908,5.652-45.891
				s9.196-29.114,16.284-42.392c7.088-13.278,15.656-25.48,25.704-36.605c10.049-11.125,21.308-20.725,33.779-28.8
				c12.471-8.075,25.974-14.355,40.508-18.841c14.534-4.486,29.876-6.729,46.026-6.729c26.018,0,49.749,4.037,71.192,12.112
				c21.443,8.075,39.745,19.604,54.908,34.587s26.916,33.106,35.26,54.37C683.097,278.001,687.269,301.732,687.269,327.93z
				 M567.763,334.928c0-7.716-1.122-15.207-3.365-22.475c-2.243-7.267-5.518-13.727-9.824-19.379
				c-4.307-5.652-9.645-10.228-16.015-13.727c-6.37-3.499-13.682-5.249-21.936-5.249c-8.434,0-15.97,1.525-22.609,4.576
				s-12.336,7.222-17.091,12.516c-4.755,5.293-8.389,11.484-10.901,18.572c-2.512,7.088-3.768,14.579-3.768,22.475
				c0,7.536,1.077,15.073,3.23,22.609s5.383,14.355,9.69,20.456c4.306,6.101,9.645,11.035,16.015,14.804
				c6.37,3.768,13.772,5.652,22.205,5.652c8.434,0,16.015-1.66,22.744-4.979c6.729-3.32,12.426-7.806,17.091-13.458
				c4.665-5.652,8.254-12.157,10.766-19.514C566.507,350.449,567.763,342.823,567.763,334.928z"/>
			<path style="fill:#2D5EA7;" d="M972.843,139.52l-15.073,113.584c-5.204-1.435-10.407-2.422-15.611-2.961
				s-10.407-0.807-15.611-0.807c-13.278,0-25.929,1.75-37.951,5.249c-12.022,3.499-22.654,8.837-31.895,16.015
				c-9.241,7.177-16.598,16.149-22.071,26.916c-5.473,10.766-8.209,23.417-8.209,37.951c0,9.331,1.48,17.405,4.441,24.224
				c2.961,6.819,7.133,12.471,12.516,16.957c5.383,4.486,11.753,7.806,19.11,9.959c7.357,2.153,15.432,3.23,24.224,3.23
				c6.639,0,13.547-0.718,20.725-2.153c7.177-1.436,14.265-3.32,21.263-5.652c6.998-2.333,13.817-5.024,20.456-8.075
				c6.639-3.05,12.74-6.191,18.303-9.42l-10.766,126.503c-6.998,3.589-14.579,6.774-22.744,9.555
				c-8.164,2.781-16.553,5.204-25.166,7.267c-8.613,2.064-17.226,3.634-25.839,4.71c-8.613,1.077-16.867,1.615-24.762,1.615
				c-22.789,0-44.052-4.217-63.79-12.65c-19.738-8.434-36.874-20.007-51.409-34.721c-14.534-14.714-25.974-32.074-34.317-52.082
				c-8.344-20.007-12.516-41.585-12.516-64.732c0-30.684,4.396-59.618,13.189-86.803s21.712-51.005,38.758-71.461
				c17.047-20.456,38.175-36.605,63.386-48.448c25.211-11.843,54.235-17.764,87.072-17.764c12.381,0,25.076,0.987,38.086,2.961
				C949.651,130.459,961.718,134.137,972.843,139.52z"/>
			<path style="fill:#2D5EA7;" d="M1329.206,494.807l-133.502,17.226l-16.149-60.829h-61.368l-13.458,60.829l-137.27-13.458
				l107.124-358.516l149.651-7.536L1329.206,494.807z M1169.866,368.842l-20.456-93.666l-19.918,93.666H1169.866z"/>
			<path style="fill:#2D5EA7;" d="M1571.447,364.535l-11.305,119.505l-226.63,17.764c1.077-62.624,2.288-124.889,3.634-186.794
				c1.346-61.906,3.006-124.171,4.979-186.794h139.961c-4.127,39.297-8.075,78.549-11.843,117.756s-6.46,78.728-8.075,118.563
				c8.434,0.359,16.777,0.538,25.032,0.538s16.598,0,25.031,0c10.048,0,19.918-0.09,29.607-0.269
				C1551.529,364.625,1561.398,364.535,1571.447,364.535z"/>
			<path style="fill:#2D5EA7;" d="M1923.503,494.807l-133.502,17.226l-16.149-60.829h-61.368l-13.458,60.829l-137.27-13.458
				l107.124-358.516l149.651-7.536L1923.503,494.807z M1764.163,368.842l-20.456-93.666l-19.917,93.666H1764.163z"/>
			<path style="fill:#2D5EA7;" d="M2244.607,258.487c0,13.996-1.211,26.691-3.634,38.086s-6.235,21.847-11.439,31.357
				c-5.204,9.51-11.932,18.303-20.187,26.377c-8.254,8.075-18.213,15.791-29.876,23.147l64.059,114.122l-121.12,23.686
				l-41.45-114.661l-33.375,1.077l-4.845,111.969h-115.737c0.897-40.912,1.75-81.644,2.557-122.197
				c0.807-40.553,1.75-81.285,2.826-122.197c0.359-20.635,0.718-41.091,1.077-61.368s1.077-40.732,2.153-61.368
				c12.561-4.665,24.942-8.523,37.144-11.574c12.202-3.05,24.448-5.428,36.74-7.133s24.762-2.871,37.413-3.499
				s25.615-0.942,38.893-0.942c20.456,0,40.239,2.826,59.349,8.478s36.022,14.131,50.736,25.435
				c14.714,11.305,26.512,25.39,35.394,42.258C2240.166,216.409,2244.607,236.058,2244.607,258.487z M2124.025,267.1
				c0-7.536-1.032-14.445-3.095-20.725c-2.063-6.28-5.114-11.708-9.151-16.284c-4.037-4.576-9.062-8.164-15.073-10.766
				c-6.011-2.602-13.054-3.903-21.129-3.903c-3.589,0-7.088,0.224-10.497,0.673c-3.409,0.449-6.729,1.121-9.959,2.019
				l-4.307,100.126h6.46c7.716,0,15.566-0.987,23.551-2.961s15.163-5.024,21.532-9.151c6.37-4.127,11.574-9.42,15.611-15.88
				S2124.025,276.072,2124.025,267.1z"/>
			<path style="fill:#2D5EA7;" d="M2602.585,494.807l-133.501,17.226l-16.149-60.829h-61.368l-13.458,60.829l-137.27-13.458
				l107.124-358.516l149.651-7.536L2602.585,494.807z M2443.244,368.842l-20.456-93.666l-19.918,93.666H2443.244z"/>
		</g>
		<g>
			<path style="fill:#2D5EA7;" d="M3528.176,463.046c-8.434,10.587-18.841,19.828-31.222,27.723s-25.659,14.445-39.835,19.648
				c-14.176,5.204-28.71,9.106-43.603,11.708c-14.893,2.602-29.069,3.903-42.527,3.903c-26.019,0-49.973-4.665-71.865-13.996
				c-21.891-9.331-40.777-22.205-56.657-38.624c-15.88-16.419-28.306-35.753-37.278-58.003
				c-8.972-22.25-13.458-46.205-13.458-71.865c0-19.559,2.243-38.714,6.729-57.465c4.486-18.751,10.901-36.426,19.245-53.024
				c8.344-16.598,18.527-31.85,30.549-45.757c12.022-13.906,25.66-25.884,40.912-35.932c15.252-10.048,31.94-17.854,50.063-23.417
				c18.123-5.563,37.502-8.344,58.138-8.344c7.716,0,15.97,0.314,24.762,0.942s17.54,1.705,26.243,3.23
				c8.703,1.525,17.181,3.634,25.435,6.325c8.254,2.692,15.791,6.011,22.609,9.959l-7.536,102.818
				c-10.048-3.768-20.411-6.325-31.087-7.671c-10.677-1.346-21.129-2.019-31.357-2.019c-14.355,0-27.768,2.198-40.239,6.594
				c-12.471,4.396-23.327,10.721-32.568,18.976s-16.553,18.303-21.936,30.146s-8.075,25.211-8.075,40.104
				c0,9.331,1.256,18.348,3.768,27.05c2.512,8.703,6.325,16.419,11.439,23.147c5.114,6.729,11.484,12.157,19.11,16.284
				c7.626,4.127,16.463,6.191,26.512,6.191c6.819,0,13.862-0.897,21.129-2.692c7.267-1.794,13.502-4.845,18.706-9.151l1.077-20.994
				l-64.598-1.077l3.23-80.747c26.736-0.897,53.472-1.66,80.208-2.288c26.736-0.628,53.652-1.48,80.747-2.557L3528.176,463.046z"/>
			<path style="fill:#2D5EA7;" d="M3803.523,129.831c-1.077,16.867-2.063,33.555-2.961,50.063s-2.064,33.196-3.499,50.063
				l-114.122,5.921l-2.692,33.914h80.209l-5.922,83.438l-80.747,2.692l-2.692,39.297h66.751h47.371
				c-1.077,19.738-2.198,39.342-3.365,58.811c-1.166,19.469-2.198,38.983-3.095,58.541l-232.013,5.383l8.613-388.123H3803.523z"/>
			<path style="fill:#2D5EA7;" d="M4049.263,364.535l-11.305,119.505l-226.63,17.764c1.077-62.624,2.288-124.889,3.634-186.794
				c1.346-61.906,3.006-124.171,4.979-186.794h139.961c-4.127,39.297-8.074,78.549-11.843,117.756
				c-3.768,39.207-6.46,78.728-8.075,118.563c8.434,0.359,16.777,0.538,25.031,0.538s16.598,0,25.031,0
				c10.049,0,19.918-0.09,29.607-0.269C4029.345,364.625,4039.214,364.535,4049.263,364.535z"/>
			<path style="fill:#2D5EA7;" d="M4366.867,304.244c0,25.121-3.23,47.775-9.69,67.962c-6.459,20.187-15.477,38.13-27.05,53.831
				s-25.345,29.203-41.315,40.508c-15.97,11.305-33.465,20.59-52.485,27.858s-39.252,12.65-60.695,16.149
				c-21.443,3.499-43.469,5.249-66.078,5.249c-8.434,0-16.688-0.224-24.762-0.673s-16.329-1.121-24.762-2.019l7.536-361.208
				c19.738-6.28,40.059-10.721,60.964-13.323c20.904-2.602,41.674-3.903,62.31-3.903c25.66,0,49.255,3.858,70.788,11.574
				c21.532,7.716,40.104,18.841,55.715,33.375c15.611,14.534,27.768,32.299,36.471,53.293S4366.867,277.687,4366.867,304.244z
				 M4256.513,321.47c0.18-9.69-0.852-19.02-3.095-27.992c-2.243-8.972-5.921-16.912-11.035-23.82
				c-5.114-6.908-11.619-12.471-19.514-16.688c-7.895-4.217-17.315-6.505-28.261-6.863l-10.766,166.877
				c10.766-1.615,20.545-5.159,29.338-10.632s16.374-12.202,22.744-20.187c6.37-7.985,11.305-16.867,14.804-26.646
				s5.428-19.873,5.787-30.28V321.47z"/>
			<path style="fill:#2D5EA7;" d="M4528.361,138.982l-29.607,366.591l-113.584,5.921V146.518L4528.361,138.982z M4511.135,74.654
				c0,7.357-1.391,14.176-4.172,20.456c-2.781,6.28-6.594,11.798-11.439,16.553c-4.845,4.755-10.498,8.478-16.957,11.17
				c-6.46,2.692-13.368,4.037-20.725,4.037c-7.895,0-15.163-1.346-21.802-4.037c-6.639-2.692-12.381-6.415-17.226-11.17
				c-4.845-4.755-8.613-10.273-11.304-16.553c-2.692-6.28-4.038-13.099-4.038-20.456c0-7.178,1.346-13.996,4.038-20.456
				c2.691-6.46,6.415-12.067,11.17-16.822c4.755-4.755,10.362-8.523,16.822-11.305c6.459-2.781,13.368-4.172,20.725-4.172
				c7.716,0,14.938,1.391,21.667,4.172s12.561,6.549,17.495,11.305s8.792,10.363,11.574,16.822S4511.135,67.476,4511.135,74.654z"/>
			<path style="fill:#2D5EA7;" d="M4888.223,132.522L4758.489,311.78l109.277,190.563l-124.888,22.071l-81.824-116.276
				l-4.306,121.659l-111.969,4.307l8.613-412.347l125.427,6.998l-9.69,121.659l83.438-128.657L4888.223,132.522z"/>
		</g>
	</g>
</g>
<g>
</g>
<g>
</g>
<g>
</g>
<g>
</g>
<g>
</g>
<g>
</g>
<g>
</g>
<g>
</g>
<g>
</g>
<g>
</g>
<g>
</g>
<g>
</g>
<g>
</g>
<g>
</g>
<g>
</g>
</svg>
